<mxfile host="app.diagrams.net" modified="2022-05-14T09:40:14.306Z" agent="5.0 (Macintosh; Intel Mac OS X 10_15_7) AppleWebKit/537.36 (KHTML, like Gecko) Chrome/101.0.4951.64 Safari/537.36" etag="F1_fewRItperbGpJO6Wr" version="18.0.3" type="github">
  <diagram id="XcR88ab-G2o9rMDIWQE9" name="第 1 页">
    <mxGraphModel dx="701" dy="643" grid="1" gridSize="10" guides="1" tooltips="1" connect="1" arrows="1" fold="1" page="1" pageScale="1" pageWidth="827" pageHeight="1169" math="0" shadow="0">
      <root>
        <mxCell id="0" />
        <mxCell id="1" parent="0" />
        <mxCell id="LIKP4J1p5fkKvQmoOaCO-2" value="&lt;font style=&quot;font-size: 32px;&quot;&gt;&lt;b&gt;1&lt;/b&gt;&lt;/font&gt;" style="ellipse;whiteSpace=wrap;html=1;aspect=fixed;fillColor=#ffcd28;strokeColor=#d79b00;sketch=1;fillStyle=auto;gradientColor=#ffa500;" vertex="1" parent="1">
          <mxGeometry x="300" y="110" width="70" height="70" as="geometry" />
        </mxCell>
        <mxCell id="LIKP4J1p5fkKvQmoOaCO-3" value="&lt;span style=&quot;font-size: 32px;&quot;&gt;&lt;b&gt;2&lt;/b&gt;&lt;/span&gt;" style="ellipse;whiteSpace=wrap;html=1;aspect=fixed;fillColor=#f8cecc;strokeColor=#b85450;sketch=1;fillStyle=auto;gradientColor=#ea6b66;" vertex="1" parent="1">
          <mxGeometry x="200" y="210" width="70" height="70" as="geometry" />
        </mxCell>
        <mxCell id="LIKP4J1p5fkKvQmoOaCO-4" value="&lt;span style=&quot;font-size: 32px;&quot;&gt;&lt;b&gt;3&lt;/b&gt;&lt;/span&gt;" style="ellipse;whiteSpace=wrap;html=1;aspect=fixed;fillColor=#f8cecc;strokeColor=#b85450;sketch=1;fillStyle=auto;gradientColor=#ea6b66;" vertex="1" parent="1">
          <mxGeometry x="400" y="210" width="70" height="70" as="geometry" />
        </mxCell>
        <mxCell id="LIKP4J1p5fkKvQmoOaCO-5" value="&lt;span style=&quot;font-size: 32px;&quot;&gt;&lt;b&gt;4&lt;/b&gt;&lt;/span&gt;" style="ellipse;whiteSpace=wrap;html=1;aspect=fixed;fillColor=#d5e8d4;strokeColor=#82b366;sketch=1;fillStyle=auto;gradientColor=#97d077;" vertex="1" parent="1">
          <mxGeometry x="130" y="320" width="70" height="70" as="geometry" />
        </mxCell>
        <mxCell id="LIKP4J1p5fkKvQmoOaCO-6" value="&lt;span style=&quot;font-size: 32px;&quot;&gt;&lt;b&gt;5&lt;/b&gt;&lt;/span&gt;" style="ellipse;whiteSpace=wrap;html=1;aspect=fixed;fillColor=#d5e8d4;strokeColor=#82b366;sketch=1;fillStyle=auto;gradientColor=#97d077;" vertex="1" parent="1">
          <mxGeometry x="280" y="320" width="70" height="70" as="geometry" />
        </mxCell>
        <mxCell id="LIKP4J1p5fkKvQmoOaCO-7" value="&lt;span style=&quot;font-size: 32px;&quot;&gt;&lt;b&gt;7&lt;/b&gt;&lt;/span&gt;" style="ellipse;whiteSpace=wrap;html=1;aspect=fixed;fillColor=#6a00ff;strokeColor=#3700CC;sketch=1;fillStyle=auto;fontColor=#ffffff;gradientColor=#ffffff;" vertex="1" parent="1">
          <mxGeometry x="60" y="430" width="70" height="70" as="geometry" />
        </mxCell>
        <mxCell id="LIKP4J1p5fkKvQmoOaCO-8" value="&lt;span style=&quot;font-size: 32px;&quot;&gt;&lt;b&gt;6&lt;/b&gt;&lt;/span&gt;" style="ellipse;whiteSpace=wrap;html=1;aspect=fixed;fillColor=#d5e8d4;strokeColor=#82b366;sketch=1;fillStyle=auto;gradientColor=#97d077;" vertex="1" parent="1">
          <mxGeometry x="490" y="320" width="70" height="70" as="geometry" />
        </mxCell>
        <mxCell id="LIKP4J1p5fkKvQmoOaCO-9" value="&lt;span style=&quot;font-size: 32px;&quot;&gt;&lt;b&gt;8&lt;/b&gt;&lt;/span&gt;" style="ellipse;whiteSpace=wrap;html=1;aspect=fixed;fillColor=#6a00ff;strokeColor=#3700CC;sketch=1;fillStyle=auto;fontColor=#ffffff;gradientColor=#ffffff;" vertex="1" parent="1">
          <mxGeometry x="190" y="430" width="70" height="70" as="geometry" />
        </mxCell>
        <mxCell id="LIKP4J1p5fkKvQmoOaCO-12" value="" style="endArrow=classic;startArrow=classic;html=1;rounded=0;fontSize=32;strokeWidth=2;" edge="1" parent="1">
          <mxGeometry width="50" height="50" relative="1" as="geometry">
            <mxPoint x="260" y="220" as="sourcePoint" />
            <mxPoint x="310" y="170" as="targetPoint" />
          </mxGeometry>
        </mxCell>
        <mxCell id="LIKP4J1p5fkKvQmoOaCO-13" value="" style="endArrow=classic;startArrow=classic;html=1;rounded=0;fontSize=32;strokeWidth=2;entryX=1;entryY=1;entryDx=0;entryDy=0;" edge="1" parent="1" source="LIKP4J1p5fkKvQmoOaCO-4" target="LIKP4J1p5fkKvQmoOaCO-2">
          <mxGeometry width="50" height="50" relative="1" as="geometry">
            <mxPoint x="380" y="210" as="sourcePoint" />
            <mxPoint x="360" y="170" as="targetPoint" />
          </mxGeometry>
        </mxCell>
        <mxCell id="LIKP4J1p5fkKvQmoOaCO-14" value="" style="endArrow=classic;startArrow=classic;html=1;rounded=0;fontSize=32;strokeWidth=2;exitX=0.614;exitY=-0.049;exitDx=0;exitDy=0;exitPerimeter=0;" edge="1" parent="1" source="LIKP4J1p5fkKvQmoOaCO-5">
          <mxGeometry width="50" height="50" relative="1" as="geometry">
            <mxPoint x="160" y="320" as="sourcePoint" />
            <mxPoint x="210" y="270" as="targetPoint" />
          </mxGeometry>
        </mxCell>
        <mxCell id="LIKP4J1p5fkKvQmoOaCO-15" value="" style="endArrow=classic;startArrow=classic;html=1;rounded=0;fontSize=32;strokeWidth=2;exitX=1;exitY=1;exitDx=0;exitDy=0;" edge="1" parent="1" source="LIKP4J1p5fkKvQmoOaCO-3">
          <mxGeometry width="50" height="50" relative="1" as="geometry">
            <mxPoint x="260" y="280" as="sourcePoint" />
            <mxPoint x="310" y="320" as="targetPoint" />
          </mxGeometry>
        </mxCell>
      </root>
    </mxGraphModel>
  </diagram>
</mxfile>
